<svg xmlns="http://www.w3.org/2000/svg" width="32" height="32" viewBox="0 0 32 32" fill="none">
  <g clip-path="url(#clip0_990_25062)">
    <path d="M8.4 0.798828C7.355 0.798828 6.5 1.65383 6.5 2.69883V29.2988C6.5 30.3438 7.355 31.1988 8.4 31.1988H27.4C28.445 31.1988 29.3 30.3438 29.3 29.2988V8.39883L21.7 0.798828H8.4Z" fill="#B0A9DC"/>
    <path d="M23.6002 8.39883H29.3002L21.7002 0.798828V6.49883C21.7002 7.54383 22.5552 8.39883 23.6002 8.39883Z" fill="#5B498E"/>
    <path d="M25.5002 25.45C25.5002 25.9725 25.0727 26.4 24.5502 26.4H3.6502C3.1277 26.4 2.7002 25.9725 2.7002 25.45V15.95C2.7002 15.4275 3.1277 15 3.6502 15H24.5502C25.0727 15 25.5002 15.4275 25.5002 15.95V25.45Z" fill="#5B498E"/>
    <path d="M10.964 22.2075C10.8507 22.5475 10.6807 22.8365 10.454 23.0745C10.2273 23.3068 9.961 23.4825 9.655 23.6015C9.349 23.7205 9.01183 23.78 8.6435 23.78C8.10517 23.78 7.63767 23.6638 7.241 23.4315C6.84433 23.1992 6.53833 22.8677 6.323 22.437C6.10767 22.0063 6 21.4907 6 20.89C6 20.2893 6.10767 19.7737 6.323 19.343C6.53833 18.9123 6.84433 18.5808 7.241 18.3485C7.63767 18.1162 8.10233 18 8.635 18C9.00333 18 9.33483 18.051 9.6295 18.153C9.92983 18.255 10.1848 18.408 10.3945 18.612C10.6042 18.816 10.7657 19.071 10.879 19.377L10.0205 19.7595C9.90717 19.4252 9.74283 19.1815 9.5275 19.0285C9.31217 18.8698 9.03167 18.7905 8.686 18.7905C8.34033 18.7905 8.03717 18.8727 7.7765 19.037C7.51583 19.2013 7.31183 19.4393 7.1645 19.751C7.02283 20.0627 6.952 20.4423 6.952 20.89C6.952 21.332 7.02 21.7117 7.156 22.029C7.292 22.3407 7.4875 22.5787 7.7425 22.743C7.9975 22.9073 8.3035 22.9895 8.6605 22.9895C9.00617 22.9895 9.30367 22.9017 9.553 22.726C9.808 22.5447 9.98933 22.2755 10.097 21.9185L10.964 22.2075Z" fill="white"/>
    <path d="M14.0375 18C14.5419 18 14.9782 18.0963 15.3465 18.289C15.7149 18.476 16.0265 18.7537 16.2815 19.122L15.6695 19.7085C15.4542 19.3798 15.2105 19.1447 14.9385 19.003C14.6722 18.8557 14.3549 18.782 13.9865 18.782C13.7145 18.782 13.4907 18.8188 13.315 18.8925C13.1394 18.9662 13.009 19.0653 12.924 19.19C12.8447 19.309 12.805 19.445 12.805 19.598C12.805 19.7737 12.8645 19.9267 12.9835 20.057C13.1082 20.1873 13.3377 20.2893 13.672 20.363L14.811 20.618C15.355 20.737 15.7404 20.9183 15.967 21.162C16.1937 21.4057 16.307 21.7145 16.307 22.0885C16.307 22.4342 16.2135 22.7345 16.0265 22.9895C15.8395 23.2445 15.5789 23.44 15.2445 23.576C14.9159 23.712 14.5277 23.78 14.08 23.78C13.6834 23.78 13.3264 23.729 13.009 23.627C12.6917 23.525 12.414 23.3862 12.176 23.2105C11.938 23.0348 11.7425 22.8337 11.5895 22.607L12.2185 21.978C12.3375 22.1763 12.4877 22.3548 12.669 22.5135C12.8504 22.6665 13.06 22.7855 13.298 22.8705C13.5417 22.9555 13.8109 22.998 14.1055 22.998C14.3662 22.998 14.59 22.9668 14.777 22.9045C14.9697 22.8422 15.1142 22.7515 15.2105 22.6325C15.3125 22.5078 15.3635 22.3605 15.3635 22.1905C15.3635 22.0262 15.3069 21.8817 15.1935 21.757C15.0859 21.6323 14.8819 21.536 14.5815 21.468L13.349 21.1875C13.009 21.1138 12.7285 21.009 12.5075 20.873C12.2865 20.737 12.1222 20.5727 12.0145 20.38C11.9069 20.1817 11.853 19.9607 11.853 19.717C11.853 19.3997 11.938 19.1135 12.108 18.8585C12.2837 18.5978 12.5359 18.391 12.8645 18.238C13.1932 18.0793 13.5842 18 14.0375 18Z" fill="white"/>
    <path d="M22.0772 18.085L19.9947 23.695H18.9322L16.8497 18.085H17.8187L19.1277 21.8165L19.4677 22.93L19.8077 21.825L21.1167 18.085H22.0772Z" fill="white"/>
  </g>
  <defs>
    <clipPath id="clip0_990_25062">
      <rect width="30.4" height="30.4" fill="white" transform="translate(0.799805 0.798828)"/>
    </clipPath>
  </defs>
</svg>