<svg xmlns="http://www.w3.org/2000/svg" width="32" height="32" viewBox="0 0 32 32" fill="none">
  <g clip-path="url(#clip0_982_24783)">
    <path d="M8.4 0.798828C7.355 0.798828 6.5 1.65383 6.5 2.69883V29.2988C6.5 30.3438 7.355 31.1988 8.4 31.1988H27.4C28.445 31.1988 29.3 30.3438 29.3 29.2988V8.39883L21.7 0.798828H8.4Z" fill="#B0A9DC"/>
    <path d="M23.6002 8.39883H29.3002L21.7002 0.798828V6.49883C21.7002 7.54383 22.5552 8.39883 23.6002 8.39883Z" fill="#5B498E"/>
    <path d="M25.5002 25.45C25.5002 25.9725 25.0727 26.4 24.5502 26.4H3.6502C3.1277 26.4 2.7002 25.9725 2.7002 25.45V15.95C2.7002 15.4275 3.1277 15 3.6502 15H24.5502C25.0727 15 25.5002 15.4275 25.5002 15.95V25.45Z" fill="#5B498E"/>
    <path d="M6.9805 18.085C7.85883 18.085 8.54167 18.3287 9.029 18.816C9.522 19.2977 9.7685 19.989 9.7685 20.89C9.7685 21.791 9.522 22.4852 9.029 22.9725C8.54167 23.4542 7.85883 23.695 6.9805 23.695H5V18.085H6.9805ZM6.9805 22.9215C7.5755 22.9215 8.02883 22.7458 8.3405 22.3945C8.65783 22.0375 8.8165 21.536 8.8165 20.89C8.8165 20.244 8.65783 19.7453 8.3405 19.394C8.02883 19.037 7.5755 18.8585 6.9805 18.8585H5.9095V22.9215H6.9805Z" fill="white"/>
    <path d="M13.4467 18C13.9907 18 14.461 18.1162 14.8577 18.3485C15.2543 18.5808 15.5603 18.9123 15.7757 19.343C15.991 19.7737 16.0987 20.2893 16.0987 20.89C16.0987 21.4907 15.991 22.0063 15.7757 22.437C15.5603 22.8677 15.2543 23.1992 14.8577 23.4315C14.461 23.6638 13.9907 23.78 13.4467 23.78C12.9083 23.78 12.4408 23.6638 12.0442 23.4315C11.6475 23.1992 11.3415 22.8677 11.1262 22.437C10.9108 22.0063 10.8032 21.4907 10.8032 20.89C10.8032 20.2893 10.9108 19.7737 11.1262 19.343C11.3415 18.9123 11.6475 18.5808 12.0442 18.3485C12.4408 18.1162 12.9083 18 13.4467 18ZM13.4467 18.7905C13.0953 18.7905 12.7922 18.8727 12.5372 19.037C12.2878 19.2013 12.0952 19.4393 11.9592 19.751C11.8232 20.0627 11.7552 20.4423 11.7552 20.89C11.7552 21.332 11.8232 21.7117 11.9592 22.029C12.0952 22.3407 12.2878 22.5787 12.5372 22.743C12.7922 22.9073 13.0953 22.9895 13.4467 22.9895C13.8037 22.9895 14.1068 22.9073 14.3562 22.743C14.6112 22.5787 14.8067 22.3407 14.9427 22.029C15.0787 21.7117 15.1467 21.332 15.1467 20.89C15.1467 20.4423 15.0787 20.0627 14.9427 19.751C14.8067 19.4393 14.6112 19.2013 14.3562 19.037C14.1068 18.8727 13.8037 18.7905 13.4467 18.7905Z" fill="white"/>
    <path d="M22.1007 22.2075C21.9873 22.5475 21.8173 22.8365 21.5907 23.0745C21.364 23.3068 21.0977 23.4825 20.7917 23.6015C20.4857 23.7205 20.1485 23.78 19.7802 23.78C19.2418 23.78 18.7743 23.6638 18.3777 23.4315C17.981 23.1992 17.675 22.8677 17.4597 22.437C17.2443 22.0063 17.1367 21.4907 17.1367 20.89C17.1367 20.2893 17.2443 19.7737 17.4597 19.343C17.675 18.9123 17.981 18.5808 18.3777 18.3485C18.7743 18.1162 19.239 18 19.7717 18C20.14 18 20.4715 18.051 20.7662 18.153C21.0665 18.255 21.3215 18.408 21.5312 18.612C21.7408 18.816 21.9023 19.071 22.0157 19.377L21.1572 19.7595C21.0438 19.4252 20.8795 19.1815 20.6642 19.0285C20.4488 18.8698 20.1683 18.7905 19.8227 18.7905C19.477 18.7905 19.1738 18.8727 18.9132 19.037C18.6525 19.2013 18.4485 19.4393 18.3012 19.751C18.1595 20.0627 18.0887 20.4423 18.0887 20.89C18.0887 21.332 18.1567 21.7117 18.2927 22.029C18.4287 22.3407 18.6242 22.5787 18.8792 22.743C19.1342 22.9073 19.4402 22.9895 19.7972 22.9895C20.1428 22.9895 20.4403 22.9017 20.6897 22.726C20.9447 22.5447 21.126 22.2755 21.2337 21.9185L22.1007 22.2075Z" fill="white"/>
  </g>
  <defs>
    <clipPath id="clip0_982_24783">
      <rect width="30.4" height="30.4" fill="white" transform="translate(0.799805 0.798828)"/>
    </clipPath>
  </defs>
</svg>