<svg xmlns="http://www.w3.org/2000/svg" width="32" height="32" viewBox="0 0 32 32" fill="none">
  <g clip-path="url(#clip0_982_24810)">
    <path d="M8.4 0.798828C7.355 0.798828 6.5 1.65383 6.5 2.69883V29.2988C6.5 30.3438 7.355 31.1988 8.4 31.1988H27.4C28.445 31.1988 29.3 30.3438 29.3 29.2988V8.39883L21.7 0.798828H8.4Z" fill="#B0A9DC"/>
    <path d="M23.6002 8.39883H29.3002L21.7002 0.798828V6.49883C21.7002 7.54383 22.5552 8.39883 23.6002 8.39883Z" fill="#5B498E"/>
    <path d="M28 25.45C28 25.9725 27.5312 26.4 26.9583 26.4H4.04167C3.46875 26.4 3 25.9725 3 25.45V15.95C3 15.4275 3.46875 15 4.04167 15H26.9583C27.5312 15 28 15.4275 28 15.95V25.45Z" fill="#5B498E"/>
    <path d="M5.9805 18.085C6.85883 18.085 7.54167 18.3287 8.029 18.816C8.522 19.2977 8.7685 19.989 8.7685 20.89C8.7685 21.791 8.522 22.4852 8.029 22.9725C7.54167 23.4542 6.85883 23.695 5.9805 23.695H4V18.085H5.9805ZM5.9805 22.9215C6.5755 22.9215 7.02883 22.7458 7.3405 22.3945C7.65783 22.0375 7.8165 21.536 7.8165 20.89C7.8165 20.244 7.65783 19.7453 7.3405 19.394C7.02883 19.037 6.5755 18.8585 5.9805 18.8585H4.9095V22.9215H5.9805Z" fill="white"/>
    <path d="M12.4467 18C12.9907 18 13.461 18.1162 13.8577 18.3485C14.2543 18.5808 14.5603 18.9123 14.7757 19.343C14.991 19.7737 15.0987 20.2893 15.0987 20.89C15.0987 21.4907 14.991 22.0063 14.7757 22.437C14.5603 22.8677 14.2543 23.1992 13.8577 23.4315C13.461 23.6638 12.9907 23.78 12.4467 23.78C11.9083 23.78 11.4408 23.6638 11.0442 23.4315C10.6475 23.1992 10.3415 22.8677 10.1262 22.437C9.91084 22.0063 9.80318 21.4907 9.80318 20.89C9.80318 20.2893 9.91084 19.7737 10.1262 19.343C10.3415 18.9123 10.6475 18.5808 11.0442 18.3485C11.4408 18.1162 11.9083 18 12.4467 18ZM12.4467 18.7905C12.0953 18.7905 11.7922 18.8727 11.5372 19.037C11.2878 19.2013 11.0952 19.4393 10.9592 19.751C10.8232 20.0627 10.7552 20.4423 10.7552 20.89C10.7552 21.332 10.8232 21.7117 10.9592 22.029C11.0952 22.3407 11.2878 22.5787 11.5372 22.743C11.7922 22.9073 12.0953 22.9895 12.4467 22.9895C12.8037 22.9895 13.1068 22.9073 13.3562 22.743C13.6112 22.5787 13.8067 22.3407 13.9427 22.029C14.0787 21.7117 14.1467 21.332 14.1467 20.89C14.1467 20.4423 14.0787 20.0627 13.9427 19.751C13.8067 19.4393 13.6112 19.2013 13.3562 19.037C13.1068 18.8727 12.8037 18.7905 12.4467 18.7905Z" fill="white"/>
    <path d="M21.1007 22.2075C20.9873 22.5475 20.8173 22.8365 20.5907 23.0745C20.364 23.3068 20.0977 23.4825 19.7917 23.6015C19.4857 23.7205 19.1485 23.78 18.7802 23.78C18.2418 23.78 17.7743 23.6638 17.3777 23.4315C16.981 23.1992 16.675 22.8677 16.4597 22.437C16.2443 22.0063 16.1367 21.4907 16.1367 20.89C16.1367 20.2893 16.2443 19.7737 16.4597 19.343C16.675 18.9123 16.981 18.5808 17.3777 18.3485C17.7743 18.1162 18.239 18 18.7717 18C19.14 18 19.4715 18.051 19.7662 18.153C20.0665 18.255 20.3215 18.408 20.5312 18.612C20.7408 18.816 20.9023 19.071 21.0157 19.377L20.1572 19.7595C20.0438 19.4252 19.8795 19.1815 19.6642 19.0285C19.4488 18.8698 19.1683 18.7905 18.8227 18.7905C18.477 18.7905 18.1738 18.8727 17.9132 19.037C17.6525 19.2013 17.4485 19.4393 17.3012 19.751C17.1595 20.0627 17.0887 20.4423 17.0887 20.89C17.0887 21.332 17.1567 21.7117 17.2927 22.029C17.4287 22.3407 17.6242 22.5787 17.8792 22.743C18.1342 22.9073 18.4402 22.9895 18.7972 22.9895C19.1428 22.9895 19.4403 22.9017 19.6897 22.726C19.9447 22.5447 20.126 22.2755 20.2337 21.9185L21.1007 22.2075Z" fill="white"/>
    <path d="M26.453 23.695H25.382L23.9965 21.536L22.6195 23.695H21.574L23.5205 20.8475L21.727 18.085H22.798L24.0815 20.125L25.382 18.085H26.3765L24.5575 20.8135L26.453 23.695Z" fill="white"/>
  </g>
  <defs>
    <clipPath id="clip0_982_24810">
      <rect width="30.4" height="30.4" fill="white" transform="translate(0.799805 0.798828)"/>
    </clipPath>
  </defs>
</svg>