<svg xmlns="http://www.w3.org/2000/svg" width="32" height="32" viewBox="0 0 32 32" fill="none">
  <g clip-path="url(#clip0_990_25088)">
    <path d="M8.4 0.798828C7.355 0.798828 6.5 1.65383 6.5 2.69883V29.2988C6.5 30.3438 7.355 31.1988 8.4 31.1988H27.4C28.445 31.1988 29.3 30.3438 29.3 29.2988V8.39883L21.7 0.798828H8.4Z" fill="#B0A9DC"/>
    <path d="M23.6002 8.39883H29.3002L21.7002 0.798828V6.49883C21.7002 7.54383 22.5552 8.39883 23.6002 8.39883Z" fill="#5B498E"/>
    <path d="M28 25.0833C28 25.5875 27.5312 26 26.9583 26H4.04167C3.46875 26 3 25.5875 3 25.0833V15.9167C3 15.4125 3.46875 15 4.04167 15H26.9583C27.5312 15 28 15.4125 28 15.9167V25.0833Z" fill="#5B498E"/>
    <path d="M8.86853 17.085V20.706C8.86853 21.3577 8.6872 21.8677 8.32453 22.236C7.96753 22.5987 7.46886 22.78 6.82853 22.78C6.36953 22.78 5.99553 22.695 5.70653 22.525C5.41753 22.355 5.21636 22.117 5.10303 21.811C4.9897 21.4993 4.96986 21.1395 5.04353 20.7315L5.91903 20.57C5.85103 21.0573 5.88786 21.4172 6.02953 21.6495C6.1712 21.8762 6.43753 21.9895 6.82853 21.9895C7.25353 21.9895 7.54536 21.8677 7.70403 21.624C7.86836 21.3747 7.95053 21.012 7.95053 20.536V17.085H8.86853Z" fill="white"/>
    <path d="M12.6173 17.085C13.0196 17.085 13.3653 17.1558 13.6543 17.2975C13.949 17.4392 14.1785 17.6403 14.3428 17.901C14.5071 18.1617 14.5893 18.4762 14.5893 18.8445C14.5893 19.2072 14.5071 19.5217 14.3428 19.788C14.1785 20.0487 13.949 20.2498 13.6543 20.3915C13.3653 20.5332 13.0196 20.604 12.6173 20.604H11.3678V22.695H10.4583V17.085H12.6173ZM12.4728 19.822C12.8751 19.822 13.1698 19.7398 13.3568 19.5755C13.5495 19.4055 13.6458 19.1618 13.6458 18.8445C13.6458 18.5215 13.5495 18.2778 13.3568 18.1135C13.1698 17.9435 12.8751 17.8585 12.4728 17.8585H11.3678V19.822H12.4728Z" fill="white"/>
    <path d="M15.7874 22.695V17.085H19.8504V17.867H16.6969V19.482H19.1619V20.247H16.6969V21.913H19.9694V22.695H15.7874Z" fill="white"/>
    <path d="M23.3696 22.78C22.8426 22.78 22.3864 22.6638 22.0011 22.4315C21.6158 22.1992 21.3154 21.8705 21.1001 21.4455C20.8848 21.0148 20.7771 20.4963 20.7771 19.89C20.7771 19.295 20.8876 18.7822 21.1086 18.3515C21.3353 17.9208 21.6526 17.5893 22.0606 17.357C22.4743 17.119 22.9474 17 23.4801 17C24.0638 17 24.5341 17.1077 24.8911 17.323C25.2538 17.5383 25.5428 17.8727 25.7581 18.326L24.9166 18.7255C24.8089 18.4138 24.6304 18.1815 24.3811 18.0285C24.1374 17.8698 23.8399 17.7905 23.4886 17.7905C23.1373 17.7905 22.8284 17.8727 22.5621 18.037C22.3014 18.2013 22.0974 18.4422 21.9501 18.7595C21.8028 19.0712 21.7291 19.448 21.7291 19.89C21.7291 20.3377 21.7943 20.7202 21.9246 21.0375C22.0549 21.3492 22.2504 21.5872 22.5111 21.7515C22.7774 21.9158 23.1033 21.998 23.4886 21.998C23.6983 21.998 23.8938 21.9725 24.0751 21.9215C24.2564 21.8648 24.4151 21.7855 24.5511 21.6835C24.6871 21.5758 24.7919 21.4427 24.8656 21.284C24.9449 21.1197 24.9846 20.927 24.9846 20.706V20.5445H23.3526V19.805H25.7921V22.695H25.1121L25.0611 21.5645L25.2311 21.6495C25.0951 22.0065 24.8684 22.2842 24.5511 22.4825C24.2394 22.6808 23.8456 22.78 23.3696 22.78Z" fill="white"/>
  </g>
  <defs>
    <clipPath id="clip0_990_25088">
      <rect width="30.4" height="30.4" fill="white" transform="translate(0.799805 0.798828)"/>
    </clipPath>
  </defs>
</svg>