<svg xmlns="http://www.w3.org/2000/svg" width="32" height="32" viewBox="0 0 32 32" fill="none">
  <g clip-path="url(#clip0_982_24729)">
    <path d="M8.4 0.798828C7.355 0.798828 6.5 1.65383 6.5 2.69883V29.2988C6.5 30.3438 7.355 31.1988 8.4 31.1988H27.4C28.445 31.1988 29.3 30.3438 29.3 29.2988V8.39883L21.7 0.798828H8.4Z" fill="#B0A9DC"/>
    <path d="M23.6002 8.39883H29.3002L21.7002 0.798828V6.49883C21.7002 7.54383 22.5552 8.39883 23.6002 8.39883Z" fill="#5B498E"/>
    <path d="M25.5002 25.45C25.5002 25.9725 25.0727 26.4 24.5502 26.4H3.6502C3.1277 26.4 2.7002 25.9725 2.7002 25.45V15.95C2.7002 15.4275 3.1277 15 3.6502 15H24.5502C25.0727 15 25.5002 15.4275 25.5002 15.95V25.45Z" fill="#5B498E"/>
    <path d="M9.86853 18.085V21.706C9.86853 22.3577 9.6872 22.8677 9.32453 23.236C8.96753 23.5987 8.46886 23.78 7.82853 23.78C7.36953 23.78 6.99553 23.695 6.70653 23.525C6.41753 23.355 6.21636 23.117 6.10303 22.811C5.9897 22.4993 5.96986 22.1395 6.04353 21.7315L6.91903 21.57C6.85103 22.0573 6.88786 22.4172 7.02953 22.6495C7.1712 22.8762 7.43753 22.9895 7.82853 22.9895C8.25353 22.9895 8.54536 22.8677 8.70403 22.624C8.86836 22.3747 8.95053 22.012 8.95053 21.536V18.085H9.86853Z" fill="white"/>
    <path d="M13.6173 18.085C14.0196 18.085 14.3653 18.1558 14.6543 18.2975C14.949 18.4392 15.1785 18.6403 15.3428 18.901C15.5071 19.1617 15.5893 19.4762 15.5893 19.8445C15.5893 20.2072 15.5071 20.5217 15.3428 20.788C15.1785 21.0487 14.949 21.2498 14.6543 21.3915C14.3653 21.5332 14.0196 21.604 13.6173 21.604H12.3678V23.695H11.4583V18.085H13.6173ZM13.4728 20.822C13.8751 20.822 14.1698 20.7398 14.3568 20.5755C14.5495 20.4055 14.6458 20.1618 14.6458 19.8445C14.6458 19.5215 14.5495 19.2778 14.3568 19.1135C14.1698 18.9435 13.8751 18.8585 13.4728 18.8585H12.3678V20.822H13.4728Z" fill="white"/>
    <path d="M19.0654 23.78C18.5384 23.78 18.0822 23.6638 17.6969 23.4315C17.3116 23.1992 17.0112 22.8705 16.7959 22.4455C16.5806 22.0148 16.4729 21.4963 16.4729 20.89C16.4729 20.295 16.5834 19.7822 16.8044 19.3515C17.0311 18.9208 17.3484 18.5893 17.7564 18.357C18.1701 18.119 18.6432 18 19.1759 18C19.7596 18 20.2299 18.1077 20.5869 18.323C20.9496 18.5383 21.2386 18.8727 21.4539 19.326L20.6124 19.7255C20.5047 19.4138 20.3262 19.1815 20.0769 19.0285C19.8332 18.8698 19.5357 18.7905 19.1844 18.7905C18.8331 18.7905 18.5242 18.8727 18.2579 19.037C17.9972 19.2013 17.7932 19.4422 17.6459 19.7595C17.4986 20.0712 17.4249 20.448 17.4249 20.89C17.4249 21.3377 17.4901 21.7202 17.6204 22.0375C17.7507 22.3492 17.9462 22.5872 18.2069 22.7515C18.4732 22.9158 18.7991 22.998 19.1844 22.998C19.3941 22.998 19.5896 22.9725 19.7709 22.9215C19.9522 22.8648 20.1109 22.7855 20.2469 22.6835C20.3829 22.5758 20.4877 22.4427 20.5614 22.284C20.6407 22.1197 20.6804 21.927 20.6804 21.706V21.5445H19.0484V20.805H21.4879V23.695H20.8079L20.7569 22.5645L20.9269 22.6495C20.7909 23.0065 20.5642 23.2842 20.2469 23.4825C19.9352 23.6808 19.5414 23.78 19.0654 23.78Z" fill="white"/>
  </g>
  <defs>
    <clipPath id="clip0_982_24729">
      <rect width="30.4" height="30.4" fill="white" transform="translate(0.799805 0.798828)"/>
    </clipPath>
  </defs>
</svg>