<svg xmlns="http://www.w3.org/2000/svg" width="32" height="32" viewBox="0 0 32 32" fill="none">
  <g clip-path="url(#clip0_982_24910)">
    <path d="M8.4 0.798828C7.355 0.798828 6.5 1.65383 6.5 2.69883V29.2988C6.5 30.3438 7.355 31.1988 8.4 31.1988H27.4C28.445 31.1988 29.3 30.3438 29.3 29.2988V8.39883L21.7 0.798828H8.4Z" fill="#B0A9DC"/>
    <path d="M23.6002 8.39883H29.3002L21.7002 0.798828V6.49883C21.7002 7.54383 22.5552 8.39883 23.6002 8.39883Z" fill="#5B498E"/>
    <path d="M28 25.0833C28 25.5875 27.5312 26 26.9583 26H4.04167C3.46875 26 3 25.5875 3 25.0833V15.9167C3 15.4125 3.46875 15 4.04167 15H26.9583C27.5312 15 28 15.4125 28 15.9167V25.0833Z" fill="#5B498E"/>
    <path d="M7.86853 17.085V20.706C7.86853 21.3577 7.6872 21.8677 7.32453 22.236C6.96753 22.5987 6.46886 22.78 5.82853 22.78C5.36953 22.78 4.99553 22.695 4.70653 22.525C4.41753 22.355 4.21636 22.117 4.10303 21.811C3.9897 21.4993 3.96986 21.1395 4.04353 20.7315L4.91903 20.57C4.85103 21.0573 4.88786 21.4172 5.02953 21.6495C5.1712 21.8762 5.43753 21.9895 5.82853 21.9895C6.25353 21.9895 6.54536 21.8677 6.70403 21.624C6.86836 21.3747 6.95053 21.012 6.95053 20.536V17.085H7.86853Z" fill="white"/>
    <path d="M11.3708 17C11.8751 17 12.3115 17.0963 12.6798 17.289C13.0481 17.476 13.3598 17.7537 13.6148 18.122L13.0028 18.7085C12.7875 18.3798 12.5438 18.1447 12.2718 18.003C12.0055 17.8557 11.6881 17.782 11.3198 17.782C11.0478 17.782 10.824 17.8188 10.6483 17.8925C10.4726 17.9662 10.3423 18.0653 10.2573 18.19C10.178 18.309 10.1383 18.445 10.1383 18.598C10.1383 18.7737 10.1978 18.9267 10.3168 19.057C10.4415 19.1873 10.671 19.2893 11.0053 19.363L12.1443 19.618C12.6883 19.737 13.0736 19.9183 13.3003 20.162C13.527 20.4057 13.6403 20.7145 13.6403 21.0885C13.6403 21.4342 13.5468 21.7345 13.3598 21.9895C13.1728 22.2445 12.9121 22.44 12.5778 22.576C12.2491 22.712 11.861 22.78 11.4133 22.78C11.0166 22.78 10.6596 22.729 10.3423 22.627C10.025 22.525 9.7473 22.3862 9.5093 22.2105C9.2713 22.0348 9.0758 21.8337 8.9228 21.607L9.5518 20.978C9.6708 21.1763 9.82096 21.3548 10.0023 21.5135C10.1836 21.6665 10.3933 21.7855 10.6313 21.8705C10.875 21.9555 11.1441 21.998 11.4388 21.998C11.6995 21.998 11.9233 21.9668 12.1103 21.9045C12.303 21.8422 12.4475 21.7515 12.5438 21.6325C12.6458 21.5078 12.6968 21.3605 12.6968 21.1905C12.6968 21.0262 12.6401 20.8817 12.5268 20.757C12.4191 20.6323 12.2151 20.536 11.9148 20.468L10.6823 20.1875C10.3423 20.1138 10.0618 20.009 9.8408 19.873C9.6198 19.737 9.45546 19.5727 9.3478 19.38C9.24013 19.1817 9.1863 18.9607 9.1863 18.717C9.1863 18.3997 9.2713 18.1135 9.4413 17.8585C9.61696 17.5978 9.86913 17.391 10.1978 17.238C10.5265 17.0793 10.9175 17 11.3708 17Z" fill="white"/>
    <path d="M17.2409 17C17.7849 17 18.2552 17.1162 18.6519 17.3485C19.0486 17.5808 19.3546 17.9123 19.5699 18.343C19.7852 18.7737 19.8929 19.2893 19.8929 19.89C19.8929 20.4907 19.7852 21.0063 19.5699 21.437C19.3546 21.8677 19.0486 22.1992 18.6519 22.4315C18.2552 22.6638 17.7849 22.78 17.2409 22.78C16.7026 22.78 16.2351 22.6638 15.8384 22.4315C15.4417 22.1992 15.1357 21.8677 14.9204 21.437C14.7051 21.0063 14.5974 20.4907 14.5974 19.89C14.5974 19.2893 14.7051 18.7737 14.9204 18.343C15.1357 17.9123 15.4417 17.5808 15.8384 17.3485C16.2351 17.1162 16.7026 17 17.2409 17ZM17.2409 17.7905C16.8896 17.7905 16.5864 17.8727 16.3314 18.037C16.0821 18.2013 15.8894 18.4393 15.7534 18.751C15.6174 19.0627 15.5494 19.4423 15.5494 19.89C15.5494 20.332 15.6174 20.7117 15.7534 21.029C15.8894 21.3407 16.0821 21.5787 16.3314 21.743C16.5864 21.9073 16.8896 21.9895 17.2409 21.9895C17.5979 21.9895 17.9011 21.9073 18.1504 21.743C18.4054 21.5787 18.6009 21.3407 18.7369 21.029C18.8729 20.7117 18.9409 20.332 18.9409 19.89C18.9409 19.4423 18.8729 19.0627 18.7369 18.751C18.6009 18.4393 18.4054 18.2013 18.1504 18.037C17.9011 17.8727 17.5979 17.7905 17.2409 17.7905Z" fill="white"/>
    <path d="M25.8439 17.085V22.695H24.7644L22.5969 19.159L22.0529 18.1645H22.0444L22.0784 19.074V22.695H21.2454V17.085H22.3164L24.4754 20.6125L25.0279 21.624H25.0364L25.0024 20.706V17.085H25.8439Z" fill="white"/>
  </g>
  <defs>
    <clipPath id="clip0_982_24910">
      <rect width="30.4" height="30.4" fill="white" transform="translate(0.799805 0.798828)"/>
    </clipPath>
  </defs>
</svg>