<svg xmlns="http://www.w3.org/2000/svg" width="32" height="32" viewBox="0 0 32 32" fill="none">
  <g clip-path="url(#clip0_990_25096)">
    <path d="M8.4 0.798828C7.355 0.798828 6.5 1.65383 6.5 2.69883V29.2988C6.5 30.3438 7.355 31.1988 8.4 31.1988H27.4C28.445 31.1988 29.3 30.3438 29.3 29.2988V8.39883L21.7 0.798828H8.4Z" fill="#B0A9DC"/>
    <path d="M23.6002 8.39883H29.3002L21.7002 0.798828V6.49883C21.7002 7.54383 22.5552 8.39883 23.6002 8.39883Z" fill="#5B498E"/>
    <path d="M25.5002 25.45C25.5002 25.9725 25.0727 26.4 24.5502 26.4H3.6502C3.1277 26.4 2.7002 25.9725 2.7002 25.45V15.95C2.7002 15.4275 3.1277 15 3.6502 15H24.5502C25.0727 15 25.5002 15.4275 25.5002 15.95V25.45Z" fill="#5B498E"/>
    <path d="M8.159 18C8.56133 18 8.907 18.0708 9.196 18.2125C9.49067 18.3542 9.72017 18.5553 9.8845 18.816C10.0488 19.0767 10.131 19.3912 10.131 19.7595C10.131 20.1222 10.0488 20.4367 9.8845 20.703C9.72017 20.9637 9.49067 21.1648 9.196 21.3065C8.907 21.4482 8.56133 21.519 8.159 21.519H6.9095V23.61H6V18H8.159ZM8.0145 20.737C8.41683 20.737 8.7115 20.6548 8.8985 20.4905C9.09117 20.3205 9.1875 20.0768 9.1875 19.7595C9.1875 19.4365 9.09117 19.1928 8.8985 19.0285C8.7115 18.8585 8.41683 18.7735 8.0145 18.7735H6.9095V20.737H8.0145Z" fill="white"/>
    <path d="M13.3096 18C14.1879 18 14.8708 18.2437 15.3581 18.731C15.8511 19.2127 16.0976 19.904 16.0976 20.805C16.0976 21.706 15.8511 22.4002 15.3581 22.8875C14.8708 23.3692 14.1879 23.61 13.3096 23.61H11.3291V18H13.3096ZM13.3096 22.8365C13.9046 22.8365 14.3579 22.6608 14.6696 22.3095C14.9869 21.9525 15.1456 21.451 15.1456 20.805C15.1456 20.159 14.9869 19.6603 14.6696 19.309C14.3579 18.952 13.9046 18.7735 13.3096 18.7735H12.2386V22.8365H13.3096Z" fill="white"/>
    <path d="M21.5013 18.782H18.3563V20.414H20.8213V21.196H18.3563V23.61H17.4468V18H21.5013V18.782Z" fill="white"/>
  </g>
  <defs>
    <clipPath id="clip0_990_25096">
      <rect width="30.4" height="30.4" fill="white" transform="translate(0.799805 0.798828)"/>
    </clipPath>
  </defs>
</svg>