<svg xmlns="http://www.w3.org/2000/svg" width="32" height="32" viewBox="0 0 32 32" fill="none">
  <g clip-path="url(#clip0_982_24702)">
    <path d="M8.4 0.798828C7.355 0.798828 6.5 1.65383 6.5 2.69883V29.2988C6.5 30.3438 7.355 31.1988 8.4 31.1988H27.4C28.445 31.1988 29.3 30.3438 29.3 29.2988V8.39883L21.7 0.798828H8.4Z" fill="#B0A9DC"/>
    <path d="M23.6002 8.39883H29.3002L21.7002 0.798828V6.49883C21.7002 7.54383 22.5552 8.39883 23.6002 8.39883Z" fill="#5B498E"/>
    <path d="M25.5002 25.4988C25.5002 26.0213 25.0727 26.4488 24.5502 26.4488H3.6502C3.1277 26.4488 2.7002 26.0213 2.7002 25.4988V15.9988C2.7002 15.4763 3.1277 15.0488 3.6502 15.0488H24.5502C25.0727 15.0488 25.5002 15.4763 25.5002 15.9988V25.4988Z" fill="#5B498E"/>
    <path d="M8.159 18.085C8.56133 18.085 8.907 18.1558 9.196 18.2975C9.49067 18.4392 9.72017 18.6403 9.8845 18.901C10.0488 19.1617 10.131 19.4762 10.131 19.8445C10.131 20.2072 10.0488 20.5217 9.8845 20.788C9.72017 21.0487 9.49067 21.2498 9.196 21.3915C8.907 21.5332 8.56133 21.604 8.159 21.604H6.9095V23.695H6V18.085H8.159ZM8.0145 20.822C8.41683 20.822 8.7115 20.7398 8.8985 20.5755C9.09117 20.4055 9.1875 20.1618 9.1875 19.8445C9.1875 19.5215 9.09117 19.2778 8.8985 19.1135C8.7115 18.9435 8.41683 18.8585 8.0145 18.8585H6.9095V20.822H8.0145Z" fill="white"/>
    <path d="M15.9276 18.085V23.695H14.8481L12.6806 20.159L12.1366 19.1645H12.1281L12.1621 20.074V23.695H11.3291V18.085H12.4001L14.5591 21.6125L15.1116 22.624H15.1201L15.0861 21.706V18.085H15.9276Z" fill="white"/>
    <path d="M19.8659 23.78C19.3389 23.78 18.8827 23.6638 18.4974 23.4315C18.1121 23.1992 17.8117 22.8705 17.5964 22.4455C17.3811 22.0148 17.2734 21.4963 17.2734 20.89C17.2734 20.295 17.3839 19.7822 17.6049 19.3515C17.8316 18.9208 18.1489 18.5893 18.5569 18.357C18.9706 18.119 19.4437 18 19.9764 18C20.5601 18 21.0304 18.1077 21.3874 18.323C21.7501 18.5383 22.0391 18.8727 22.2544 19.326L21.4129 19.7255C21.3052 19.4138 21.1267 19.1815 20.8774 19.0285C20.6337 18.8698 20.3362 18.7905 19.9849 18.7905C19.6336 18.7905 19.3247 18.8727 19.0584 19.037C18.7977 19.2013 18.5937 19.4422 18.4464 19.7595C18.2991 20.0712 18.2254 20.448 18.2254 20.89C18.2254 21.3377 18.2906 21.7202 18.4209 22.0375C18.5512 22.3492 18.7467 22.5872 19.0074 22.7515C19.2737 22.9158 19.5996 22.998 19.9849 22.998C20.1946 22.998 20.3901 22.9725 20.5714 22.9215C20.7527 22.8648 20.9114 22.7855 21.0474 22.6835C21.1834 22.5758 21.2882 22.4427 21.3619 22.284C21.4412 22.1197 21.4809 21.927 21.4809 21.706V21.5445H19.8489V20.805H22.2884V23.695H21.6084L21.5574 22.5645L21.7274 22.6495C21.5914 23.0065 21.3647 23.2842 21.0474 23.4825C20.7357 23.6808 20.3419 23.78 19.8659 23.78Z" fill="white"/>
  </g>
  <defs>
    <clipPath id="clip0_982_24702">
      <rect width="30.4" height="30.4" fill="white" transform="translate(0.799805 0.798828)"/>
    </clipPath>
  </defs>
</svg>