<svg xmlns="http://www.w3.org/2000/svg" width="32" height="32" viewBox="0 0 32 32" fill="none">
  <g clip-path="url(#clip0_990_25054)">
    <path d="M8.4 0.798828C7.355 0.798828 6.5 1.65383 6.5 2.69883V29.2988C6.5 30.3438 7.355 31.1988 8.4 31.1988H27.4C28.445 31.1988 29.3 30.3438 29.3 29.2988V8.39883L21.7 0.798828H8.4Z" fill="#B0A9DC"/>
    <path d="M23.6002 8.39883H29.3002L21.7002 0.798828V6.49883C21.7002 7.54383 22.5552 8.39883 23.6002 8.39883Z" fill="#5B498E"/>
    <path d="M25.5002 25.45C25.5002 25.9725 25.0727 26.4 24.5502 26.4H3.6502C3.1277 26.4 2.7002 25.9725 2.7002 25.45V15.95C2.7002 15.4275 3.1277 15 3.6502 15H24.5502C25.0727 15 25.5002 15.4275 25.5002 15.95V25.45Z" fill="#5B498E"/>
    <path d="M10.7515 18V18.782H8.8305V23.61H7.921V18.782H6V18H10.7515Z" fill="white"/>
    <path d="M16.0652 23.61H14.9942L13.6087 21.451L12.2317 23.61H11.1862L13.1327 20.7625L11.3392 18H12.4102L13.6937 20.04L14.9942 18H15.9887L14.1697 20.7285L16.0652 23.61Z" fill="white"/>
    <path d="M21.2852 18V18.782H19.3642V23.61H18.4547V18.782H16.5337V18H21.2852Z" fill="white"/>
  </g>
  <defs>
    <clipPath id="clip0_990_25054">
      <rect width="30.4" height="30.4" fill="white" transform="translate(0.799805 0.798828)"/>
    </clipPath>
  </defs>
</svg>