<svg xmlns="http://www.w3.org/2000/svg" width="32" height="32" viewBox="0 0 32 32" fill="none">
  <g clip-path="url(#clip0_982_24756)">
    <path d="M8.4 0.798828C7.355 0.798828 6.5 1.65383 6.5 2.69883V29.2988C6.5 30.3438 7.355 31.1988 8.4 31.1988H27.4C28.445 31.1988 29.3 30.3438 29.3 29.2988V8.39883L21.7 0.798828H8.4Z" fill="#B0A9DC"/>
    <path d="M23.6002 8.39883H29.3002L21.7002 0.798828V6.49883C21.7002 7.54383 22.5552 8.39883 23.6002 8.39883Z" fill="#5B498E"/>
    <path d="M25.5002 25.45C25.5002 25.9725 25.0727 26.4 24.5502 26.4H3.6502C3.1277 26.4 2.7002 25.9725 2.7002 25.45V15.95C2.7002 15.4275 3.1277 15 3.6502 15H24.5502C25.0727 15 25.5002 15.4275 25.5002 15.95V25.45Z" fill="#5B498E"/>
    <path d="M10.879 23.695H9.808L8.4225 21.536L7.0455 23.695H6L7.9465 20.8475L6.153 18.085H7.224L8.5075 20.125L9.808 18.085H10.8025L8.9835 20.8135L10.879 23.695Z" fill="white"/>
    <path d="M12.835 22.913H15.929V23.695H11.9255V18.085H12.835V22.913Z" fill="white"/>
    <path d="M18.9264 18C19.4307 18 19.867 18.0963 20.2354 18.289C20.6037 18.476 20.9154 18.7537 21.1704 19.122L20.5584 19.7085C20.343 19.3798 20.0994 19.1447 19.8274 19.003C19.561 18.8557 19.2437 18.782 18.8754 18.782C18.6034 18.782 18.3795 18.8188 18.2039 18.8925C18.0282 18.9662 17.8979 19.0653 17.8129 19.19C17.7335 19.309 17.6939 19.445 17.6939 19.598C17.6939 19.7737 17.7534 19.9267 17.8724 20.057C17.997 20.1873 18.2265 20.2893 18.5609 20.363L19.6999 20.618C20.2439 20.737 20.6292 20.9183 20.8559 21.162C21.0825 21.4057 21.1959 21.7145 21.1959 22.0885C21.1959 22.4342 21.1024 22.7345 20.9154 22.9895C20.7284 23.2445 20.4677 23.44 20.1334 23.576C19.8047 23.712 19.4165 23.78 18.9689 23.78C18.5722 23.78 18.2152 23.729 17.8979 23.627C17.5805 23.525 17.3029 23.3862 17.0649 23.2105C16.8269 23.0348 16.6314 22.8337 16.4784 22.607L17.1074 21.978C17.2264 22.1763 17.3765 22.3548 17.5579 22.5135C17.7392 22.6665 17.9489 22.7855 18.1869 22.8705C18.4305 22.9555 18.6997 22.998 18.9944 22.998C19.255 22.998 19.4789 22.9668 19.6659 22.9045C19.8585 22.8422 20.003 22.7515 20.0994 22.6325C20.2014 22.5078 20.2524 22.3605 20.2524 22.1905C20.2524 22.0262 20.1957 21.8817 20.0824 21.757C19.9747 21.6323 19.7707 21.536 19.4704 21.468L18.2379 21.1875C17.8979 21.1138 17.6174 21.009 17.3964 20.873C17.1754 20.737 17.011 20.5727 16.9034 20.38C16.7957 20.1817 16.7419 19.9607 16.7419 19.717C16.7419 19.3997 16.8269 19.1135 16.9969 18.8585C17.1725 18.5978 17.4247 18.391 17.7534 18.238C18.082 18.0793 18.473 18 18.9264 18Z" fill="white"/>
  </g>
  <defs>
    <clipPath id="clip0_982_24756">
      <rect width="30.4" height="30.4" fill="white" transform="translate(0.799805 0.798828)"/>
    </clipPath>
  </defs>
</svg>