<svg xmlns="http://www.w3.org/2000/svg" width="32" height="32" viewBox="0 0 32 32" fill="none">
  <g clip-path="url(#clip0_982_24837)">
    <path d="M8.4 0.798828C7.355 0.798828 6.5 1.65383 6.5 2.69883V29.2988C6.5 30.3438 7.355 31.1988 8.4 31.1988H27.4C28.445 31.1988 29.3 30.3438 29.3 29.2988V8.39883L21.7 0.798828H8.4Z" fill="#B0A9DC"/>
    <path d="M23.6002 8.39883H29.3002L21.7002 0.798828V6.49883C21.7002 7.54383 22.5552 8.39883 23.6002 8.39883Z" fill="#5B498E"/>
    <path d="M28 25.0833C28 25.5875 27.5312 26 26.9583 26H4.04167C3.46875 26 3 25.5875 3 25.0833V15.9167C3 15.4125 3.46875 15 4.04167 15H26.9583C27.5312 15 28 15.4125 28 15.9167V25.0833Z" fill="#5B498E"/>
    <path d="M9.879 22.695H8.808L7.4225 20.536L6.0455 22.695H5L6.9465 19.8475L5.153 17.085H6.224L7.5075 19.125L8.808 17.085H9.8025L7.9835 19.8135L9.879 22.695Z" fill="white"/>
    <path d="M11.835 21.913H14.929V22.695H10.9255V17.085H11.835V21.913Z" fill="white"/>
    <path d="M17.9264 17C18.4307 17 18.867 17.0963 19.2354 17.289C19.6037 17.476 19.9154 17.7537 20.1704 18.122L19.5584 18.7085C19.343 18.3798 19.0994 18.1447 18.8274 18.003C18.561 17.8557 18.2437 17.782 17.8754 17.782C17.6034 17.782 17.3795 17.8188 17.2039 17.8925C17.0282 17.9662 16.8979 18.0653 16.8129 18.19C16.7335 18.309 16.6939 18.445 16.6939 18.598C16.6939 18.7737 16.7534 18.9267 16.8724 19.057C16.997 19.1873 17.2265 19.2893 17.5609 19.363L18.6999 19.618C19.2439 19.737 19.6292 19.9183 19.8559 20.162C20.0825 20.4057 20.1959 20.7145 20.1959 21.0885C20.1959 21.4342 20.1024 21.7345 19.9154 21.9895C19.7284 22.2445 19.4677 22.44 19.1334 22.576C18.8047 22.712 18.4165 22.78 17.9689 22.78C17.5722 22.78 17.2152 22.729 16.8979 22.627C16.5805 22.525 16.3029 22.3862 16.0649 22.2105C15.8269 22.0348 15.6314 21.8337 15.4784 21.607L16.1074 20.978C16.2264 21.1763 16.3765 21.3548 16.5579 21.5135C16.7392 21.6665 16.9489 21.7855 17.1869 21.8705C17.4305 21.9555 17.6997 21.998 17.9944 21.998C18.255 21.998 18.4789 21.9668 18.6659 21.9045C18.8585 21.8422 19.003 21.7515 19.0994 21.6325C19.2014 21.5078 19.2524 21.3605 19.2524 21.1905C19.2524 21.0262 19.1957 20.8817 19.0824 20.757C18.9747 20.6323 18.7707 20.536 18.4704 20.468L17.2379 20.1875C16.8979 20.1138 16.6174 20.009 16.3964 19.873C16.1754 19.737 16.011 19.5727 15.9034 19.38C15.7957 19.1817 15.7419 18.9607 15.7419 18.717C15.7419 18.3997 15.8269 18.1135 15.9969 17.8585C16.1725 17.5978 16.4247 17.391 16.7534 17.238C17.082 17.0793 17.473 17 17.9264 17Z" fill="white"/>
    <path d="M25.609 22.695H24.538L23.1525 20.536L21.7755 22.695H20.73L22.6765 19.8475L20.883 17.085H21.954L23.2375 19.125L24.538 17.085H25.5325L23.7135 19.8135L25.609 22.695Z" fill="white"/>
  </g>
  <defs>
    <clipPath id="clip0_982_24837">
      <rect width="30.4" height="30.4" fill="white" transform="translate(0.799805 0.798828)"/>
    </clipPath>
  </defs>
</svg>