<svg xmlns="http://www.w3.org/2000/svg" width="32" height="32" viewBox="0 0 32 32" fill="none">
  <g clip-path="url(#clip0_990_25072)">
    <path d="M8.4 0.798828C7.355 0.798828 6.5 1.65383 6.5 2.69883V29.2988C6.5 30.3438 7.355 31.1988 8.4 31.1988H27.4C28.445 31.1988 29.3 30.3438 29.3 29.2988V8.39883L21.7 0.798828H8.4Z" fill="#B0A9DC"/>
    <path d="M23.6002 8.39883H29.3002L21.7002 0.798828V6.49883C21.7002 7.54383 22.5552 8.39883 23.6002 8.39883Z" fill="#5B498E"/>
    <path d="M25.5002 25.45C25.5002 25.9725 25.0727 26.4 24.5502 26.4H3.6502C3.1277 26.4 2.7002 25.9725 2.7002 25.45V15.95C2.7002 15.4275 3.1277 15 3.6502 15H24.5502C25.0727 15 25.5002 15.4275 25.5002 15.95V25.45Z" fill="#5B498E"/>
    <path d="M8.7735 23.151L8.612 22.8365H12.5305V23.61H8V22.8705L11.655 18.459L11.8165 18.7735H8.0765V18H12.4285V18.7395L8.7735 23.151Z" fill="white"/>
    <path d="M14.6798 18V23.61H13.7703V18H14.6798Z" fill="white"/>
    <path d="M18.5025 18C18.9049 18 19.2505 18.0708 19.5395 18.2125C19.8342 18.3542 20.0637 18.5553 20.228 18.816C20.3924 19.0767 20.4745 19.3912 20.4745 19.7595C20.4745 20.1222 20.3924 20.4367 20.228 20.703C20.0637 20.9637 19.8342 21.1648 19.5395 21.3065C19.2505 21.4482 18.9049 21.519 18.5025 21.519H17.253V23.61H16.3435V18H18.5025ZM18.358 20.737C18.7604 20.737 19.055 20.6548 19.242 20.4905C19.4347 20.3205 19.531 20.0768 19.531 19.7595C19.531 19.4365 19.4347 19.1928 19.242 19.0285C19.055 18.8585 18.7604 18.7735 18.358 18.7735H17.253V20.737H18.358Z" fill="white"/>
  </g>
  <defs>
    <clipPath id="clip0_990_25072">
      <rect width="30.4" height="30.4" fill="white" transform="translate(0.799805 0.798828)"/>
    </clipPath>
  </defs>
</svg>